8_ID_stride6.mot
nRows=7
nColumns=38

name 8_ID_stride6.mot
datacolumns 38
datarows 7
range 3.8250000000 3.8550000000
endheader
time	pelvis_tilt_moment	pelvis_list_moment	pelvis_rotation_moment	pelvis_tx_force	pelvis_ty_force	pelvis_tz_force	hip_flexion_r_moment	hip_adduction_r_moment	hip_rotation_r_moment	knee_angle_r_moment	ankle_angle_r_moment	subtalar_angle_r_moment	mtp_angle_r_moment	hip_flexion_l_moment	hip_adduction_l_moment	hip_rotation_l_moment	knee_angle_l_moment	ankle_angle_l_moment	subtalar_angle_l_moment	mtp_angle_l_moment	lumbar_extension_moment	lumbar_bending_moment	lumbar_rotation_moment	arm_flex_r_moment	arm_add_r_moment	arm_rot_r_moment	elbow_flex_r_moment	pro_sup_r_moment	wrist_flex_r_moment	wrist_dev_r_moment	arm_flex_l_moment	arm_add_l_moment	arm_rot_l_moment	elbow_flex_l_moment	pro_sup_l_moment	wrist_flex_l_moment	wrist_dev_l_moment
        3.8250000000	       -1.2613430954	      -32.7175994820	       -5.0865021521	       79.7427400720	      -75.4651864727	      -75.0957934993	      -12.0807970643	      -53.1189889069	       25.5269751262	      -10.0283745775	     -189.9846485220	       43.5730146360	       -0.0574585909	       -8.1219264978	        4.3121303622	       -3.9158838246	       -0.8563306534	        2.2405645775	       -0.0347126061	        0.1338329142	        7.7943351229	       13.8941115788	      -46.7773647055	       -0.3335339421	       -3.5943815736	       -4.6013787337	        4.2785635158	       -0.2385723447	       -0.4234361802	       -0.4669275782	        9.0897080594	        7.2944502495	        5.1729347508	        4.8323165482	        0.0627112561	        0.6392005198	       -0.2800643309	
        3.8300000000	       -5.2076289884	      -33.2400409714	       -9.6121913334	       83.3224221491	      -75.0034381766	      -61.6828151787	       -9.3103916023	      -43.5156834754	       20.5805676818	      -14.6399657585	     -174.1306651546	       39.3469426766	       -0.0651938057	      -10.6087766933	        4.0287315652	       -3.5655247140	       -1.4171492501	        2.2902329267	       -0.0809462347	        0.1354158364	        2.8489580393	       14.9873720681	      -46.8452355065	       -0.8172716722	       -3.8899428323	       -4.6679091834	        3.6767126171	       -0.2309536815	       -0.4445098097	       -0.4177566882	        8.8143874639	        7.1095985728	        5.1378590678	        4.3141731046	        0.0738655336	        0.6276220149	       -0.2339692890	
        3.8350000000	      -10.9078173688	      -31.4458396318	      -13.4190692102	       83.8469781513	      -69.0020737938	      -41.6238219582	       -4.1379795802	      -32.7846475199	       15.8816355637	      -17.6257926728	     -156.8312624869	       35.3352859857	       -0.0696394134	      -13.4415253861	        3.9732735830	       -3.1343613053	       -2.2474784300	        2.3429920429	       -0.1331140806	        0.1382216807	        0.4375909347	       16.8482848841	      -46.3369155149	       -1.4755500629	       -3.9432513915	       -4.6219264807	        3.0246248366	       -0.2173971137	       -0.4472211540	       -0.3606772680	        8.1391724705	        6.7138488096	        4.9929000670	        3.7518938685	        0.0828496443	        0.6030369447	       -0.1864163924	
        3.8400000000	      -15.3214420337	      -24.1143123112	      -15.9844517787	       82.1157305770	      -63.0518885189	      -13.5525461466	        1.7530271884	      -22.7585419054	       11.9909307008	      -19.1486811527	     -137.9572169503	       31.2857008046	       -0.0704980676	      -16.2515413983	        4.0911335257	       -2.7658011401	       -3.1623091324	        2.4031869036	       -0.1820929723	        0.1423127090	        0.0312832593	       18.8006946543	      -44.6888627018	       -2.3004123838	       -3.8645747495	       -4.3634704867	        2.3240089997	       -0.1977053010	       -0.4380207278	       -0.2959385684	        7.1399918579	        6.0735066543	        4.7076656210	        3.1450752769	        0.0891368642	        0.5654815190	       -0.1380133555	
        3.8450000000	      -17.9116048118	      -12.1756128776	      -17.3557799675	       74.5572044413	      -62.0763576210	       21.2609978919	        7.9275596285	      -14.3564262670	        9.1940110610	      -19.7558757882	     -117.9983508915	       26.9955721862	       -0.0648725746	      -18.7595936471	        4.5869876404	       -2.4986139898	       -4.0155585072	        2.4748369718	       -0.2238622707	        0.1476172571	        2.3820481085	       20.5189603522	      -42.2436801936	       -3.2498363468	       -3.4677997121	       -3.9166967764	        1.5853557999	       -0.1721515032	       -0.4081201905	       -0.2248768929	        5.8742691121	        5.1736990472	        4.2809803700	        2.5016844351	        0.0931856547	        0.5147003638	       -0.0896429877	
        3.8500000000	      -17.7649685550	        4.0285833495	      -17.2396562047	       62.3942994237	      -69.9571141244	       55.5300012809	       14.8060047816	       -7.9223718594	        7.5029607444	      -19.4772760540	      -98.5161578491	       22.4754629431	       -0.0529535478	      -20.5349839002	        5.2148908173	       -2.3496745487	       -4.6007399947	        2.5568811119	       -0.2551337488	        0.1535077809	        6.1166368333	       21.5521483127	      -39.1876287476	       -4.2103513872	       -2.8901073433	       -3.3386767020	        0.8376041853	       -0.1425318641	       -0.3665879631	       -0.1508719872	        4.4878092060	        4.0763541160	        3.7394610242	        1.8463727573	        0.0932425657	        0.4531927377	       -0.0434745826	
        3.8550000000	      -16.3595672330	       24.5653007339	      -16.7077273342	       44.7072477616	      -92.1879972667	       82.1875441018	       22.8158415889	       -2.6511786291	        5.9748482444	      -18.4954300896	      -80.3242179089	       18.1039091781	       -0.0315408386	      -21.3845066434	        5.8888279118	       -2.2651989806	       -4.8068546186	        2.6447745525	       -0.2762466844	        0.1594310136	       10.7789997421	       21.6824842240	      -35.5012459996	       -5.0901241284	       -2.1184760960	       -2.6376745635	        0.1045311424	       -0.1096726111	       -0.3131206463	       -0.0763181291	        3.0694510487	        2.8027566385	        3.0818368325	        1.1991369217	        0.0913354454	        0.3811210758	       -0.0011217975	
